<svg width="90" height="89" viewBox="0 0 90 89" fill="none" xmlns="http://www.w3.org/2000/svg">
<path d="M4.07031 4.14209H85.8308V85.0789H4.07031V4.14209Z" fill="url(#paint0_radial_1_195)"/>
<path d="M4.07031 4.14214H85.8308V85.0789H4.07031V4.14214ZM0.354736 88.8595H89.5643V0.361572H0.354736V88.8595ZM63.4659 43.0202C65.3594 43.0202 66.0383 43.0202 66.2169 42.9475C66.2169 42.6748 66.2883 42.4931 66.2883 42.3113C66.2883 40.2756 65.3237 36.4951 61.4652 36.4951C57.8926 36.4951 56.3742 39.6758 55.9991 43.0383H63.4659V43.0202ZM55.9276 48.2003C55.9991 53.3077 58.3749 56.7429 64.0376 56.7429C66.2347 56.7429 68.1283 56.4339 70.0932 55.5796C70.3612 55.4706 70.5398 55.5069 70.5398 55.8523V60.578C70.5398 60.9597 70.4326 61.1414 70.1647 61.3414C68.1997 62.3229 65.7346 62.7772 62.6978 62.7772C52.8908 62.7772 49.211 55.3979 49.211 47.2006C49.211 38.2763 53.7483 30.9696 61.7332 30.9696C69.8431 30.9696 72.6656 37.8946 72.6656 43.5291C72.6656 45.3467 72.5584 46.8189 72.3619 47.5459C72.2904 47.8549 72.1832 47.964 71.8796 48.0367C71.1293 48.1457 68.95 48.3093 65.681 48.3093H55.9455V48.2003H55.9276ZM35.9921 44.347C34.956 40.1484 32.4194 31.006 31.4905 26.5711H31.4191C30.6331 30.9878 28.5967 38.4762 27.0783 44.347H35.9921ZM25.5599 50.4722L22.6303 61.7776C22.5589 62.0866 22.4517 62.1956 22.0766 62.1956H16.5925C16.2174 62.1956 16.1459 62.0866 16.2174 61.6322L26.7746 24.081C26.9533 23.4085 27.0783 22.8632 27.1498 20.9729C27.1498 20.7003 27.2569 20.5912 27.4534 20.5912H35.2597C35.5277 20.5912 35.6348 20.6639 35.7063 20.9729L47.514 61.7049C47.5854 62.0139 47.514 62.1956 47.2103 62.1956H41.0832C40.7795 62.1956 40.6008 62.0866 40.5294 61.8139L37.4748 50.4722H25.5599Z" fill="#D8A1FF"/>
<defs>
<radialGradient id="paint0_radial_1_195" cx="0" cy="0" r="1" gradientUnits="userSpaceOnUse" gradientTransform="translate(31.0228 22.288) scale(62.1407 61.2158)">
<stop stop-color="#442F55" stop-opacity="0.98"/>
<stop offset="1" stop-color="#12002C"/>
</radialGradient>
</defs>
</svg>
