<svg width="90" height="89" viewBox="0 0 90 89" fill="none" xmlns="http://www.w3.org/2000/svg">
<path d="M4.00342 4.14209H85.7639V85.0789H4.00342V4.14209Z" fill="url(#paint0_radial_1_182)"/>
<path d="M4.00341 4.14214H85.7639V85.0789H4.00341V4.14214ZM0.287842 88.8595H89.4973V0.361572H0.287842V88.8595ZM58.7188 31.9148C58.7188 31.6058 58.826 31.4604 59.1654 31.4604H65.0067C65.3104 31.4604 65.4533 31.5694 65.4533 31.9148V61.7594C65.4533 62.0684 65.3818 62.2138 65.0067 62.2138H59.2368C58.8617 62.2138 58.7545 62.032 58.7545 61.7231V31.9148H58.7188ZM58.3079 23.3176C58.3079 20.9002 59.9871 19.4643 62.095 19.4643C64.3636 19.4643 65.882 21.0093 65.882 23.3176C65.882 25.8077 64.2922 27.1709 62.0235 27.1709C59.8799 27.189 58.3079 25.8259 58.3079 23.3176ZM41.5879 44.347C40.5518 40.1484 38.0866 31.006 37.1578 26.5711H37.0863C36.3003 30.9878 34.3353 38.4762 32.7812 44.347H41.5879ZM31.2629 50.4722L28.3333 61.8139C28.2618 62.1229 28.1546 62.1956 27.7795 62.1956H22.3133C21.9382 62.1956 21.8667 62.0866 21.9382 61.6322L32.4954 24.0446C32.6741 23.3721 32.7991 22.7542 32.8706 20.9002C32.8706 20.6276 32.9777 20.5185 33.1742 20.5185H40.9805C41.2485 20.5185 41.3556 20.5912 41.4271 20.9002L53.2526 61.7049C53.3241 62.0139 53.2526 62.1956 52.9489 62.1956H46.7861C46.4824 62.1956 46.3038 62.1229 46.2323 61.8503L43.1777 50.4722H31.2629Z" fill="#FF7F18"/>
<defs>
<radialGradient id="paint0_radial_1_182" cx="0" cy="0" r="1" gradientUnits="userSpaceOnUse" gradientTransform="translate(30.958 22.3041) scale(62.1406 61.2158)">
<stop stop-color="#423325" stop-opacity="0.98"/>
<stop offset="1" stop-color="#1C0A00"/>
</radialGradient>
</defs>
</svg>
