<svg width="59" height="90" viewBox="0 0 59 90" fill="none" xmlns="http://www.w3.org/2000/svg">
<g clip-path="url(#clip0_1_207)">
<path d="M15.0513 89.2774C23.0898 89.2774 29.61 82.6432 29.61 74.4641V59.6509H15.0513C7.0128 59.6509 0.492676 66.285 0.492676 74.4641C0.492676 82.6432 7.0128 89.2774 15.0513 89.2774Z" fill="#0ACF83"/>
<path d="M0.492676 44.8195C0.492676 36.6404 7.0128 30.0062 15.0513 30.0062H29.61V59.6509H15.0513C7.0128 59.6327 0.492676 52.9986 0.492676 44.8195Z" fill="#A259FF"/>
<path d="M0.492676 15.1748C0.492676 6.99572 7.0128 0.361572 15.0513 0.361572H29.61V30.0062H15.0513C7.0128 30.0062 0.492676 23.3539 0.492676 15.1748Z" fill="#F24E1E"/>
<path d="M29.6279 0.361572H44.1866C52.2251 0.361572 58.7452 6.99572 58.7452 15.1748C58.7452 23.3539 52.2251 29.9881 44.1866 29.9881H29.6279V0.361572Z" fill="#FF7262"/>
<path d="M58.7452 44.8195C58.7452 52.9986 52.2251 59.6327 44.1866 59.6327C36.1481 59.6327 29.6279 52.9986 29.6279 44.8195C29.6279 36.6404 36.1481 30.0062 44.1866 30.0062C52.2251 30.0062 58.7452 36.6404 58.7452 44.8195Z" fill="#1ABCFE"/>
</g>
<defs>
<clipPath id="clip0_1_207">
<rect width="58.2524" height="88.9158" fill="white" transform="translate(0.492676 0.361572)"/>
</clipPath>
</defs>
</svg>
