<svg width="90" height="89" viewBox="0 0 90 89" fill="none" xmlns="http://www.w3.org/2000/svg">
<path d="M3.93408 4.11511H85.5995V84.9018H3.93408V4.11511Z" fill="url(#paint0_radial_1_170)"/>
<path d="M3.93406 4.11508H85.5994V84.9017H3.93406V4.11508ZM0.221191 88.6778H89.2944V0.338989H0.221191V88.6778ZM60.2876 36.5931C57.3602 36.5931 56.3605 38.0999 56.3605 39.3526C56.3605 40.7141 57.021 41.6582 60.9659 43.7277C66.7852 46.5961 68.6059 49.3556 68.6059 53.3858C68.6059 59.4312 64.0719 62.6808 57.9492 62.6808C54.7183 62.6808 51.9337 62.0091 50.345 61.0651C50.0772 60.9562 50.0415 60.7565 50.0415 60.466V54.8926C50.0415 54.5114 50.22 54.4025 50.4878 54.584C52.8262 56.1271 55.5037 56.817 57.9492 56.817C60.8767 56.817 62.1084 55.5643 62.1084 53.876C62.1084 52.5144 61.2515 51.3162 57.503 49.3374C52.2371 46.7777 50.0415 44.1816 50.0415 39.8246C50.0415 34.9592 53.7901 30.9108 60.2876 30.9108C63.4828 30.9108 65.7141 31.401 66.928 31.9638C67.2314 32.1453 67.3028 32.4539 67.3028 32.7262V37.9002C67.3028 38.2088 67.1243 38.3904 66.7495 38.2815C65.1072 37.2285 62.6974 36.5931 60.2876 36.5931ZM28.3712 41.0772C29.228 41.1498 29.8885 41.1498 31.3701 41.1498C35.7077 41.1498 39.7954 39.6067 39.7954 33.5976C39.7954 28.8049 36.868 26.3904 31.9234 26.3904C30.4418 26.3904 29.0317 26.463 28.3533 26.4993L28.3712 41.0772ZM21.7487 21.0349C21.7487 20.7626 22.2664 20.581 22.5698 20.581C24.9439 20.4721 28.4783 20.3995 32.1376 20.3995C42.4194 20.3995 46.4358 26.1362 46.4358 33.4524C46.4358 43.0379 39.5991 47.1589 31.2094 47.1589C29.7992 47.1589 29.3173 47.0863 28.3176 47.0863V61.5734C28.3176 61.882 28.2105 62.0273 27.8714 62.0273H22.195C21.8915 62.0273 21.7487 61.9183 21.7487 61.5734V21.0349Z" fill="#31C5F0"/>
<defs>
<radialGradient id="paint0_radial_1_170" cx="0" cy="0" r="1" gradientUnits="userSpaceOnUse" gradientTransform="translate(30.8385 22.2397) scale(62.0565 61.105)">
<stop stop-color="#34364E" stop-opacity="0.98"/>
<stop offset="1" stop-color="#0C0824"/>
</radialGradient>
</defs>
</svg>
