<svg width="22" height="21" viewBox="0 0 22 21" fill="none" xmlns="http://www.w3.org/2000/svg">
<path d="M10.1818 1.39754C10.4818 0.47758 11.7833 0.477579 12.0832 1.39754L13.8343 6.76731C13.9685 7.17882 14.3522 7.45728 14.785 7.45728H20.4439C21.4135 7.45728 21.8157 8.69874 21.0303 9.26731L16.4584 12.577C16.1066 12.8316 15.9594 13.2842 16.0941 13.697L17.8418 19.0567C18.1421 19.9774 17.0891 20.7446 16.3047 20.1768L11.7189 16.857C11.369 16.6037 10.896 16.6037 10.5461 16.857L5.96033 20.1768C5.17591 20.7446 4.12298 19.9774 4.42321 19.0567L6.17098 13.697C6.30561 13.2842 6.1584 12.8316 5.80665 12.577L1.23477 9.26731C0.449371 8.69874 0.851567 7.45728 1.82116 7.45728H7.48001C7.91284 7.45728 8.29654 7.17882 8.43073 6.76731L10.1818 1.39754Z" fill="#E5E5E5"/>
</svg>
