<svg width="22" height="21" viewBox="0 0 22 21" fill="none" xmlns="http://www.w3.org/2000/svg">
<path d="M9.79337 1.39754C10.0934 0.47758 11.3948 0.477579 11.6948 1.39754L13.4459 6.76731C13.5801 7.17882 13.9638 7.45728 14.3966 7.45728H20.0555C21.025 7.45728 21.4272 8.69874 20.6418 9.26731L16.07 12.577C15.7182 12.8316 15.571 13.2842 15.7056 13.697L17.4534 19.0567C17.7536 19.9774 16.7007 20.7446 15.9163 20.1768L11.3305 16.857C10.9806 16.6037 10.5076 16.6037 10.1577 16.857L5.57191 20.1768C4.78749 20.7446 3.73455 19.9774 4.03478 19.0567L5.78255 13.697C5.91718 13.2842 5.76997 12.8316 5.41822 12.577L0.846342 9.26731C0.0609429 8.69874 0.463139 7.45728 1.43274 7.45728H7.09158C7.52442 7.45728 7.90812 7.17882 8.04231 6.76731L9.79337 1.39754Z" fill="#070707"/>
</svg>
